<svg width="40" height="40" viewBox="0 0 40 40" fill="none" xmlns="http://www.w3.org/2000/svg">
<path fill-rule="evenodd" clip-rule="evenodd" d="M27.1339 17.8661C27.622 18.3543 27.622 19.1457 27.1339 19.6339L19.6339 27.1339C19.3995 27.3683 19.0815 27.5 18.75 27.5C18.4185 27.5 18.1005 27.3683 17.8661 27.1339L14.1161 23.3839C13.628 22.8957 13.628 22.1043 14.1161 21.6161C14.6043 21.128 15.3957 21.128 15.8839 21.6161L18.75 24.4822L25.3661 17.8661C25.8543 17.378 26.6457 17.378 27.1339 17.8661Z" fill="#8CA6D9"/>
<path d="M10 3.75H7.5C4.73858 3.75 2.5 5.98857 2.5 8.75V35C2.5 37.7614 4.73858 40 7.5 40H32.5C35.2614 40 37.5 37.7614 37.5 35V8.75C37.5 5.98858 35.2614 3.75 32.5 3.75H30V6.25H32.5C33.8807 6.25 35 7.36929 35 8.75V35C35 36.3807 33.8807 37.5 32.5 37.5H7.5C6.11929 37.5 5 36.3807 5 35V8.75C5 7.36929 6.11929 6.25 7.5 6.25H10V3.75Z" fill="#8CA6D9"/>
<path d="M23.75 2.5C24.4404 2.5 25 3.05964 25 3.75V6.25C25 6.94036 24.4404 7.5 23.75 7.5H16.25C15.5596 7.5 15 6.94036 15 6.25V3.75C15 3.05964 15.5596 2.5 16.25 2.5H23.75ZM16.25 0C14.1789 0 12.5 1.67893 12.5 3.75V6.25C12.5 8.32107 14.1789 10 16.25 10H23.75C25.8211 10 27.5 8.32107 27.5 6.25V3.75C27.5 1.67893 25.8211 0 23.75 0H16.25Z" fill="#8CA6D9"/>
</svg>
