<svg width="417" height="410" viewBox="0 0 417 410" fill="none" xmlns="http://www.w3.org/2000/svg">
<path d="M12.4897 20.049C22.1421 25.1081 28.2039 28.9025 31.2814 31.8068C33.2399 33.6805 34.2657 35.2732 36.3174 39.4892C41.9596 51.4812 49.4203 60.8499 59.4923 68.6728C66.2535 73.9193 71.0564 76.0741 90.5941 82.6791C103.837 87.1761 111.95 90.2678 114.468 91.8605C116.474 93.1721 117.966 95.3269 119.784 99.5897C124.68 111.348 133.726 126.056 142.353 136.315C147.296 142.218 154.104 149.291 154.477 148.869C154.85 148.401 156.342 140.063 156.342 138.283C156.342 137.018 156.342 137.018 155.176 137.767C154.057 138.517 154.01 138.517 154.01 137.439C154.01 136.877 154.85 133.926 155.875 130.881C157.694 125.635 159.093 120.014 159.14 118.093C159.14 117.156 159.14 117.156 158.487 118.093C157.181 119.826 157.181 118.28 158.533 111.769C159.792 105.679 159.839 105.164 159.046 105.445C157.927 105.773 157.974 105.633 159.606 99.0744C161.191 92.7037 161.284 92.001 160.259 93.2658C159.606 94.109 159.559 94.109 159.746 92.7505C159.839 91.9542 160.445 89.5652 161.098 87.3635C162.963 80.9927 163.056 80.5243 162.217 81.227C161.191 82.117 161.238 81.4143 163.056 73.123C164.782 65.1595 164.549 65.1127 166.787 74.4815C168.279 80.618 168.372 81.5549 167.626 81.3675C166.833 81.227 167.113 82.726 168.978 88.3941C170.517 93.0785 170.75 94.6243 169.631 93.1721C168.652 91.9073 168.745 92.5631 170.331 98.606C171.916 104.836 171.963 105.164 171.03 105.164C170.144 105.164 170.097 104.836 171.683 111.722C172.429 114.908 172.942 117.718 172.802 117.952C172.662 118.187 172.149 117.999 171.683 117.531C170.797 116.735 170.797 116.781 171.077 118.327C171.729 121.934 172.849 125.775 174.387 129.757C175.273 132.052 176.159 134.676 176.299 135.566C176.532 137.112 176.486 137.158 175.273 136.831L174.014 136.503L174.341 138.985C174.527 140.344 175.04 143.248 175.506 145.45C176.346 149.619 176.299 150.556 175.18 149.619C174.247 148.869 174.341 149.385 175.973 154.865C176.765 157.535 177.465 160.018 177.465 160.299C177.465 160.627 177.605 160.908 177.791 160.908C178.211 160.908 182.594 152.898 182.314 152.664C182.174 152.523 181.242 152.851 180.216 153.366C176.905 155.053 176.952 154.116 180.822 146.246C182.501 142.827 183.993 139.454 184.133 138.704C184.413 137.439 184.366 137.346 183.34 137.627C182.035 137.955 181.055 137.252 181.055 135.94C181.055 134.535 184.646 124.136 186.231 120.997C187.817 117.812 187.817 117.812 186.698 117.812C186.185 117.812 185.672 117.625 185.532 117.437C185.439 117.25 186.045 115.47 186.884 113.549C188.749 109.521 188.842 108.912 187.583 109.24C186.324 109.567 186.371 109.24 188.469 102.916C189.495 99.8708 190.568 96.0764 190.848 94.4837C191.174 92.8911 191.687 91.2515 192.013 90.8299C192.48 90.1273 192.713 90.502 193.645 93.5C194.531 96.4044 197.376 107.272 198.168 110.598C198.495 112.097 197.469 112.425 196.163 111.207C194.578 109.755 194.764 110.692 196.676 114.205C198.448 117.437 198.728 118.749 197.609 118.749C197.236 118.749 196.909 118.515 196.909 118.28C196.909 117.999 196.723 117.812 196.443 117.812C196.21 117.812 196.35 118.702 196.723 119.779C197.096 120.904 198.122 124.37 199.008 127.509C201.339 135.753 201.153 137.627 198.215 134.816C197.516 134.16 196.816 133.645 196.723 133.786C196.396 134.16 197.749 138.657 199.894 144.138C203.251 152.757 203.251 155.334 199.894 152.617C197.236 150.556 196.257 150.04 196.07 150.79C195.93 151.446 198.308 158.144 200.826 164.187C202.505 168.216 203.018 171.682 201.899 171.682C201.619 171.635 200.826 171.354 200.173 170.98C198.308 169.902 198.308 170.136 199.987 172.947C202.318 176.882 203.391 181.754 202.132 183.018C201.526 183.627 200.686 183.3 197.702 181.285L195.977 180.114V181.519C195.977 183.253 194.998 183.768 192.993 183.018C192.153 182.691 191.407 182.644 191.174 182.878C190.428 183.627 192.853 184.658 196.63 185.22C201.572 185.923 203.624 187.328 205.769 191.45C208.287 196.228 209.126 196.697 214.815 196.65C217.66 196.603 222.043 196.088 225.913 195.385C234.12 193.839 235.612 193.839 237.43 195.338C238.783 196.509 242.373 203.349 244.285 208.408C245.684 212.062 247.689 213.701 256.362 218.151C266.108 223.117 270.584 225.131 286.904 231.97C300.707 237.732 308.447 241.292 310.732 242.932C311.525 243.494 312.317 243.775 312.551 243.541C313.483 242.463 318.706 225.506 320.198 218.479C320.617 216.512 321.27 214.544 321.597 214.076C322.156 213.326 322.389 213.701 323.648 217.636C325.514 223.21 327.612 231.127 329.104 237.873C329.71 240.73 330.643 244.243 331.202 245.602C333.207 250.801 331.669 252.207 327.845 248.6C327.146 247.944 326.399 247.522 326.26 247.71C326.073 247.897 327.192 250.286 328.731 253.05C331.902 258.765 332.321 259.842 331.902 261.154C331.482 262.419 330.503 262.325 329.384 260.873C327.938 258.999 328.125 260.498 330.176 266.213C331.855 270.897 332.042 271.132 338.85 279.236C342.673 283.733 345.937 287.293 346.17 287.058C346.543 286.684 348.455 279.517 348.455 278.486C348.455 278.018 348.269 278.018 347.756 278.486C347.196 278.954 347.056 278.954 347.056 278.439C347.056 276.893 350.507 261.622 350.88 261.622C351.486 261.622 351.999 263.309 353.818 271.038C355.683 279.236 355.683 279.142 354.704 278.767C353.678 278.392 354.051 280.36 356.476 287.761C357.501 290.946 358.201 293.71 358.014 293.851C357.874 294.038 357.315 293.663 356.802 293.008C356.009 292.024 355.916 291.977 356.102 292.773C356.242 293.289 357.082 296.568 358.014 300.034C359.973 307.529 360.066 308.653 358.714 308.232C357.874 307.951 357.781 308.091 358.014 309.028C358.154 309.637 358.994 313.15 359.879 316.898C360.765 320.645 361.278 323.878 361.092 324.065C360.859 324.299 360.206 323.971 359.646 323.362L358.62 322.285L358.947 324.159C359.74 328.703 360.719 332.31 362.491 336.947C364.403 342.006 365.708 346.128 365.708 347.3C365.708 347.908 365.102 347.862 363.237 347.112C362.537 346.831 362.444 346.925 362.631 347.862C363.983 354.607 365.335 363.32 365.102 363.554C364.915 363.742 364.496 363.601 364.076 363.273C363.656 362.945 363.283 362.758 363.144 362.852C363.05 362.992 363.89 366.084 365.055 369.831C366.221 373.532 367.06 376.858 367.014 377.28C366.781 378.404 365.895 378.357 364.356 377.092C363.563 376.39 362.91 375.921 362.91 376.015C362.91 376.155 363.423 377.795 364.076 379.669C365.428 383.65 365.195 384.306 362.677 383.557C361.791 383.276 361.045 383.088 361.045 383.182C361.045 383.229 362.071 384.868 363.377 386.836C364.636 388.803 365.708 390.817 365.708 391.333C365.708 393.487 359.46 392.129 357.082 389.506L356.149 388.475L355.916 390.489C355.729 392.316 355.543 392.551 354.377 392.691C353.631 392.785 352.792 392.597 352.419 392.316C351.952 391.942 351.533 391.942 350.833 392.27C349.061 393.253 348.455 392.925 348.455 391.005C348.455 390.021 348.315 389.084 348.175 388.897C348.036 388.756 347.056 389.459 346.077 390.443C343.093 393.347 338.663 394.612 338.29 392.738C338.197 392.316 339.176 390.208 340.482 388.054C341.741 385.899 342.72 384.072 342.673 384.025C342.627 383.931 341.88 384.166 341.088 384.447C338.756 385.337 338.477 384.587 339.829 380.605C340.482 378.732 340.901 377.045 340.761 376.952C340.668 376.811 340.435 377.092 340.248 377.514C340.062 377.935 339.362 378.591 338.616 379.013C337.357 379.622 337.218 379.622 336.938 378.919C336.798 378.544 337.031 376.952 337.451 375.406C338.383 372.08 338.383 371.705 337.544 371.705C337.218 371.705 335.026 370.44 332.694 368.895C330.41 367.349 328.358 366.084 328.218 366.084C328.078 366.084 327.985 366.88 328.032 367.817C328.171 371.846 327.285 372.361 322.856 370.909C320.478 370.159 320.431 370.159 319.312 371.237C318.659 371.846 317.96 373.11 317.726 374C317.213 375.827 316.794 381.542 316.747 386.086V389.037H314.276C312.877 389.037 311.665 388.944 311.571 388.85C311.478 388.709 311.618 384.915 311.991 380.324C312.317 375.781 312.504 371.939 312.364 371.846C311.851 371.284 301.872 371.658 299.727 372.267L297.396 372.97L297.536 375.125C297.722 377.748 297.07 377.982 294.878 376.108C294.085 375.453 293.432 375.031 293.432 375.172C293.432 375.265 293.992 376.905 294.645 378.779C296.044 382.713 295.811 383.416 293.199 382.62C292.313 382.339 291.567 382.151 291.567 382.198C291.567 382.245 292.686 384.072 294.085 386.18C295.484 388.288 296.51 390.349 296.417 390.677C295.671 392.644 290.775 391.52 287.697 388.663L286.438 387.445V389.599C286.438 392.082 285.505 392.691 283.36 391.567C282.475 391.098 281.915 391.052 281.589 391.38C281.355 391.614 280.656 391.848 280.05 391.848C279.071 391.848 278.977 391.614 278.977 389.74C278.977 388.569 278.837 387.632 278.698 387.632C278.558 387.632 277.951 388.241 277.299 388.99C275.993 390.583 271.843 392.785 270.258 392.785C268.346 392.785 268.532 391.52 270.957 387.257C272.263 385.009 273.242 383.135 273.195 383.041C273.102 382.994 272.496 383.182 271.843 383.463C269.512 384.54 269.138 383.838 270.211 380.512C271.75 375.64 271.75 375.734 270.211 377.28C267.04 380.465 266.807 378.825 269.138 370.394C270.211 366.599 271.05 363.32 271.05 363.086C271.05 362.852 270.631 363.039 270.118 363.507C269.605 363.976 269.045 364.21 268.905 364.07C268.719 363.882 268.952 362.008 269.372 359.9C270.491 354.186 271.423 346.878 271.05 346.878C270.864 346.878 270.444 347.206 270.118 347.581C269.325 348.517 268.253 348.471 268.253 347.44C268.253 346.222 269.372 342.475 271.19 337.509C272.682 333.434 274.781 325.049 274.781 323.175C274.781 322.425 274.687 322.472 273.848 323.222C273.335 323.69 272.776 323.924 272.589 323.784C272.356 323.503 274.687 310.902 275.573 307.857C275.76 307.108 275.667 307.061 274.827 307.576C274.314 307.951 273.755 308.091 273.615 307.951C273.475 307.81 274.221 304.156 275.247 299.894C277.299 291.274 277.439 290.197 276.319 292.305C274.827 294.975 275.154 292.305 277.065 285.513C278.138 281.859 278.977 278.392 278.931 277.877C278.931 277.315 278.791 277.128 278.651 277.409C278.138 278.72 277.485 277.971 277.765 276.378L278.091 274.785L272.822 271.225L267.553 267.712L267.227 269.211C267.04 270.054 266.574 272.771 266.201 275.301C265.501 279.751 262.937 288.604 262.144 289.447C261.491 290.197 261.631 288.464 263.123 278.158C264.942 265.651 264.988 266.166 262.564 264.714C260.186 263.309 260.092 263.402 259.673 267.899C259.3 271.647 259.066 272.162 258.181 271.413C257.434 270.757 257.341 268.368 257.994 264.901C258.367 262.981 258.32 262.278 257.901 261.997C256.735 261.294 256.362 261.997 255.569 266.354C254.45 272.396 254.31 272.958 253.797 272.631C253.284 272.303 253.471 265.791 254.077 262.138C254.357 260.498 254.264 260.123 253.751 260.311C253.331 260.451 252.585 263.074 251.606 268.227C249.554 278.908 247.642 287.48 247.176 288.464C246.43 289.916 246.01 288.885 246.197 286.122C246.57 280.407 249.414 262.934 250.347 260.451C250.533 260.03 250.347 259.749 249.88 259.749C249.414 259.749 248.995 260.451 248.621 261.716C247.362 266.354 246.383 271.038 245.637 275.675C243.819 287.386 243.026 290.525 242.14 289.963C240.834 289.166 242 278.205 244.285 269.633C244.938 267.244 245.404 265.182 245.311 265.089C245.218 265.042 243.959 267.103 242.513 269.726C240.182 273.989 239.435 276.05 235.892 288.604C233.7 296.334 231.369 304.812 230.716 307.435C229.317 313.057 226.752 326.782 226.752 328.843C226.752 329.593 226.426 331.185 226.053 332.263C225.54 333.715 225.26 336.853 225.167 342.943C224.934 352.874 224.98 352.827 219.525 361.634C215.328 368.426 210.292 377.795 210.665 378.17C210.805 378.357 216.634 378.451 223.628 378.497C236.218 378.497 238.503 378.263 248.342 376.249C248.575 376.202 248.855 376.39 248.995 376.671C249.088 376.998 247.736 377.607 245.544 378.216C236.964 380.512 231.742 381.121 221.623 381.027C206.562 380.887 207.634 380.699 197.143 385.618C182.781 392.41 178.444 394.284 173.688 395.923C165.295 398.734 163.15 399.015 147.948 399.062C135.452 399.156 133.68 399.249 128.364 400.28C120.39 401.826 112.09 401.873 108.22 400.327C102.625 398.125 100.153 395.97 79.8694 375.453C68.958 364.444 58.0468 353.577 55.622 351.281C48.2546 344.442 40.8871 339.383 38.2758 339.383C37.4365 339.383 38.5556 340.741 43.6849 345.894C47.2287 349.454 50.0265 352.687 49.9332 353.014C49.7467 353.577 43.5916 348.33 37.2034 342.147C35.2916 340.273 33.8927 339.289 32.7736 339.102C31.1416 338.821 31.1882 338.821 34.9185 342.709C39.3017 347.253 46.0164 355.497 45.5034 355.638C45.3169 355.731 42.3793 353.108 39.0686 349.876C33.1466 344.114 27.8308 339.383 28.8567 340.788C29.1365 341.163 30.3488 342.803 31.5146 344.395C32.727 345.988 33.5197 347.393 33.2865 347.534C33.0533 347.674 31.0483 345.801 28.8101 343.411C26.2455 340.554 24.2404 338.774 23.2612 338.446C21.6758 337.931 18.4583 333.902 15.0078 328.14C14.1684 326.735 12.4897 324.299 11.324 322.753C10.1583 321.208 7.96671 318.022 6.47455 315.727C4.98239 313.385 2.65094 310.34 1.29868 308.934C-0.10022 307.529 -1.40582 305.796 -1.68561 305.14C-2.19855 303.735 -4.39011 302.564 -7.8407 301.908C-14.8817 300.549 -39.0825 302.048 -57.6877 304.953C-65.2883 306.171 -75.5934 308.091 -76.2462 308.419C-76.6192 308.653 -76.153 309.122 -74.8473 309.871C-71.0703 311.932 -59.5062 319.709 -54.2837 323.643C-43.1393 332.075 -30.6425 343.411 -30.6425 345.098C-30.6425 347.206 -32.1347 346.456 -37.0774 341.866C-48.5949 331.185 -59.3663 322.8 -71.2102 315.399C-82.1681 308.56 -85.1991 307.576 -93.266 308.372C-96.157 308.7 -103.058 308.934 -108.56 308.934C-123.155 308.934 -125.3 308.185 -132.388 300.831L-136.445 296.615L-141.714 296.942C-152.346 297.598 -164.236 299.144 -173.515 301.018C-177.712 301.861 -179.064 301.908 -178.318 301.158C-177.805 300.643 -168.666 298.207 -162.837 296.989C-157.615 295.912 -149.828 294.835 -142.46 294.179C-139.056 293.851 -138.543 293.429 -140.595 292.586C-141.574 292.211 -155.563 292.118 -159.107 292.492C-159.387 292.539 -159.62 293.101 -159.573 293.804C-159.573 294.928 -159.76 295.116 -161.019 295.256C-161.858 295.35 -163.303 295.069 -164.236 294.694C-166.568 293.71 -168.013 293.757 -169.086 294.835C-169.832 295.584 -170.438 295.678 -173.282 295.443C-176.406 295.256 -176.593 295.162 -176.593 294.085C-176.593 292.305 -177.712 292.352 -180.277 294.226C-181.909 295.35 -183.401 296.006 -184.753 296.193C-186.665 296.38 -186.851 296.334 -186.851 295.397C-186.851 294.46 -187.038 294.366 -188.39 294.647C-192.214 295.443 -193.379 295.865 -193.379 296.568C-193.379 297.177 -193.799 297.27 -195.618 297.083C-197.25 296.942 -200.56 297.551 -208.767 299.566C-223.036 303.079 -222.29 302.938 -222.29 302.423C-222.29 302.002 -217.44 300.081 -211.285 298.114C-208.348 297.13 -208.301 297.13 -208.301 295.443C-208.301 293.71 -208.348 293.71 -209.14 294.741C-210.539 296.474 -213.477 298.16 -215.109 298.16C-217.207 298.16 -217.161 297.458 -214.829 293.617C-213.803 291.883 -213.057 290.431 -213.15 290.338C-213.244 290.244 -213.85 290.384 -214.503 290.619C-216.275 291.321 -216.461 290.619 -215.342 287.574C-214.223 284.669 -214.083 283.498 -214.969 284.623C-215.762 285.653 -217.534 286.543 -217.813 286.075C-217.953 285.841 -217.254 282.749 -216.275 279.236C-214.736 273.755 -214.596 272.912 -215.342 273.614C-215.855 274.036 -216.321 274.317 -216.461 274.176C-216.601 274.083 -216.181 270.851 -215.529 267.009C-214.876 263.215 -214.456 259.983 -214.596 259.842C-214.736 259.702 -215.109 259.842 -215.389 260.123C-215.715 260.451 -216.228 260.685 -216.554 260.685C-217.44 260.685 -216.974 258.25 -214.969 252.722C-213.523 248.693 -211.425 240.543 -211.752 240.215C-212.824 239.09 -239.822 264.761 -240.102 267.15C-240.289 268.93 -242.201 269.211 -242.62 267.525C-242.76 266.916 -242.76 265.979 -242.62 265.463C-242.434 264.995 -237.118 259.421 -230.776 253.144C-221.264 243.681 -217.907 240.73 -213.523 237.919C-213.29 237.779 -211.145 227.895 -211.099 227.005C-211.099 226.63 -211.378 226.489 -211.798 226.677C-212.824 227.052 -212.684 225.974 -211.099 219.369C-209.513 212.811 -209.467 212.389 -210.353 213.654C-211.612 215.341 -211.518 214.076 -209.98 208.923C-209.14 206.066 -208.301 203.068 -208.161 202.178C-207.881 200.819 -207.928 200.679 -208.534 201.194C-209.467 201.99 -209.467 201.85 -207.648 193.09C-205.876 184.471 -205.969 184.471 -203.638 194.261C-202.053 201.053 -201.959 201.756 -202.892 201.381C-203.451 201.147 -203.405 201.709 -202.659 204.473C-202.146 206.3 -201.307 209.017 -200.794 210.422C-199.628 213.935 -199.628 214.919 -200.887 213.373C-201.68 212.389 -201.773 212.343 -201.586 213.139C-201.446 213.654 -200.7 216.512 -199.954 219.463C-198.276 225.693 -198.182 226.724 -199.255 226.302C-199.861 226.068 -199.954 226.302 -199.674 227.988C-199.208 230.705 -199.208 230.752 -197.203 229.909C-196.271 229.487 -192.633 228.129 -189.183 226.958L-182.934 224.756L-181.722 218.948C-181.023 215.762 -180.323 212.577 -180.137 211.827C-179.857 210.656 -179.904 210.563 -180.743 211.125C-182.608 212.249 -182.561 212.062 -178.645 195.807C-178.411 194.964 -178.505 195.01 -179.391 195.994C-179.904 196.603 -180.463 197.025 -180.603 196.884C-180.696 196.744 -179.997 193.793 -178.971 190.373C-177.945 186.906 -176.966 183.253 -176.779 182.222C-176.5 180.442 -176.546 180.395 -177.246 181.285C-177.945 182.222 -177.945 182.222 -177.992 181.051C-177.992 179.411 -174.634 164.187 -174.215 164.187C-173.702 164.187 -173.002 166.436 -171.277 173.884C-169.412 181.801 -169.319 182.456 -170.158 181.613C-170.484 181.285 -170.857 181.051 -171.044 181.051C-171.464 181.051 -169.505 188.405 -167.873 192.902C-166.661 196.322 -166.801 197.446 -168.246 195.619C-168.712 195.01 -169.132 194.683 -169.132 194.87C-169.132 195.854 -165.215 210.094 -164.935 210.094C-164.656 210.094 -161.998 205.738 -155.33 194.214C-152.299 189.061 -149.221 186.251 -143.533 183.581C-141.061 182.409 -137.89 180.91 -136.491 180.208C-134.02 179.037 -129.031 174.446 -129.031 173.369C-129.031 172.01 -123.762 154.537 -122.782 152.57C-120.684 148.495 -117.746 146.387 -110.565 143.904C-103.431 141.421 -100.494 139.735 -96.3901 135.8C-91.2143 130.788 -84.4996 120.623 -77.0389 106.335C-71.2102 95.1864 -69.0186 92.7037 -61.7444 88.9562C-53.3977 84.6465 -45.0977 79.5874 -39.0825 75.0436C-35.8184 72.6077 -33.6268 69.0944 -33.0207 65.1595C-31.9016 58.4609 -29.7566 56.0719 -23.6481 54.7603C-21.783 54.3855 -19.9644 53.9171 -19.6846 53.7297C-18.6588 53.0739 -2.24515 35.8822 -0.379974 33.4932C1.15881 31.5726 1.53183 30.6825 1.53183 29.1367C1.57846 23.7965 3.49026 16.161 4.7959 16.161C4.93579 16.161 8.38635 17.941 12.4897 20.049ZM5.54196 20.9391C5.40207 21.548 5.21555 23.2812 5.07565 24.8271C4.93576 26.3729 4.60938 28.6683 4.37622 29.9799C4.09644 31.2447 3.90991 36.8191 3.90991 42.2998C3.86328 50.638 4.0032 52.5117 4.60938 53.7765C5.02905 54.6197 7.92007 59.1635 11.0443 63.9416C18.1786 74.8094 18.9713 76.121 18.5982 76.4489C18.4583 76.6363 18.1319 76.5426 17.8988 76.3084C17.5257 75.8868 8.75937 64.0353 6.98746 61.5994L6.14813 60.4283L6.47455 61.5994C7.5004 65.4875 12.0235 72.6077 19.1111 81.3675C21.7224 84.6465 23.6808 87.4572 23.4943 87.5977C22.8415 87.9725 12.7695 77.1984 10.1116 73.2635C8.806 71.3898 7.03409 68.5323 6.24139 67.0333C4.42285 63.5669 4.23633 63.3795 4.60938 65.3938C4.98242 67.3144 6.28802 69.9844 8.19983 72.8419C9.59872 74.903 10.951 76.5426 20.2303 87.5977C25.2196 93.5469 29.5095 99.2618 29.5095 99.9645C29.5095 100.995 28.7168 100.292 25.4061 96.3575C23.541 94.109 19.5774 89.7525 16.6398 86.6608L11.2774 81.0396L14.1684 85.4897C17.3859 90.5489 20.4634 96.4512 22.5617 101.745C24.4269 106.523 26.4319 114.908 25.8724 115.61C25.6393 115.938 25.2662 117.016 25.0797 117.999C24.66 120.623 22.5617 124.604 19.5308 128.633C18.0853 130.553 16.9196 132.287 16.9196 132.474C16.9196 132.708 16.36 133.598 15.7072 134.441C14.0285 136.69 13.1892 139.828 13.1892 144.091C13.1892 146.106 14.7746 161.142 16.6864 177.491C18.5982 193.839 20.1836 207.892 20.1836 208.689C20.1836 209.954 20.0437 210.141 19.1578 210C18.1786 209.86 18.0387 209.11 15.474 191.357C12.0701 168.028 11.9768 167.513 10.1116 163.766C8.19983 159.971 6.7077 157.957 6.66107 159.128C6.66107 160.955 10.7645 187.797 11.5572 191.029C11.9302 192.434 11.0909 192.856 10.6712 191.45C9.4122 187.141 6.56778 175.851 6.00824 172.853C5.02902 167.794 3.397 156.786 3.397 155.053V153.647L2.37115 155.193C1.39194 156.786 1.39194 156.88 1.95148 166.904C2.23126 172.525 2.60431 178.006 2.7442 179.177C2.97736 180.77 2.88409 181.145 2.51105 180.77C1.71835 180.02 0.179565 172.198 -0.146851 167.232C-0.566528 161.377 -0.846283 161.049 -2.66483 164.703C-5.50922 170.371 -10.7318 179.411 -13.716 183.955C-17.5396 189.717 -21.4565 193.746 -26.679 197.259L-30.8757 200.023L-31.1089 202.833C-31.342 205.785 -31.2954 214.779 -31.0156 217.027C-30.969 217.73 -29.197 220.634 -27.192 223.445C-15.0217 240.308 -6.44183 248.319 13.7487 261.763C21.9555 267.244 23.8673 268.977 26.3853 273.333C28.2039 276.519 30.1623 283.03 32.0741 292.352C33.6595 300.034 33.986 301.018 35.8978 304.156C37.0635 306.03 38.0894 307.529 38.136 307.435C38.2292 307.342 37.9028 305.374 37.4365 303.079C36.0843 296.521 35.0584 288.792 35.3382 287.808C35.8045 286.356 36.9236 286.777 37.3899 288.651C38.0427 291.274 38.7888 296.568 39.4882 304.391L40.1877 311.37L42.8456 314.837C44.2911 316.757 45.55 318.256 45.6433 318.21C45.6899 318.116 45.5967 312.167 45.3636 304.953C44.9905 293.008 45.1304 290.291 46.063 291.228C46.2029 291.321 46.7158 298.067 47.2287 306.171L48.2079 320.88L49.84 322.519L51.472 324.159L51.3321 314.181C51.1456 302.33 51.8451 301.112 52.731 311.792C53.7102 323.831 53.99 325.939 54.5029 326.126C54.876 326.267 55.1557 324.299 55.3423 319.849C56.4614 296.989 56.9277 290.665 57.5338 290.665C57.767 290.665 57.9535 297.879 57.9535 307.108C57.9535 322.472 58.2799 326.267 59.1192 320.973C61.031 309.309 65.9738 280.828 66.5333 278.439C66.9064 276.706 67.6525 274.176 68.212 272.818C68.7249 271.413 69.1446 269.914 69.1446 269.398C69.1446 268.93 69.844 267.571 70.73 266.354C75.5794 259.655 81.0351 245.227 83.3199 233.001C85.0452 223.773 85.4649 210.188 84.2059 204.754C83.5531 201.85 83.7862 200.96 85.2784 201.288C85.7913 201.381 86.4441 202.459 87.1436 204.473C87.7031 206.112 88.6823 207.939 89.3351 208.501C89.9879 209.017 95.397 213.092 101.366 217.495C114.095 226.771 117.22 229.487 123.701 236.795C131.581 245.649 150.28 264.339 150.28 263.356C150.28 263.215 148.741 261.294 146.829 259.093C142.073 253.518 139.742 250.005 140.348 249.396C140.674 249.068 142.493 250.848 146.176 255.158C151.259 261.06 165.574 275.348 167.393 276.284C167.859 276.519 166.554 274.973 164.455 272.818C156.855 264.901 152.751 259.608 153.218 258.203C153.404 257.547 154.523 258.718 161.331 266.588C167.346 273.567 176.206 282.561 176.672 282.14C176.812 281.952 175.506 280.079 173.735 277.924C167.206 270.101 159.513 258.624 155.316 250.473C153.124 246.211 152.658 244.759 153.497 244.759C154.15 244.759 155.829 247.148 159.233 252.956C167.393 266.869 178.677 282.234 182.314 284.388C183.433 285.044 185.718 286.59 187.397 287.855C189.076 289.166 190.521 290.197 190.661 290.197C190.754 290.197 190.568 289.729 190.195 289.12C189.868 288.557 189.169 287.058 188.749 285.841C188.096 284.107 188.05 283.451 188.469 283.03C189.169 282.327 189.728 283.03 193.972 289.822C195.697 292.586 197.516 295.303 198.028 295.818C200.08 297.879 211.038 305.281 211.318 304.812C211.504 304.531 212.017 301.346 212.53 297.692C213.183 292.773 213.556 291.134 214.069 291.134C214.535 291.134 214.629 291.555 214.442 292.867C214.302 293.851 213.836 297.27 213.463 300.503C212.857 305.562 212.857 306.405 213.416 307.014C214.022 307.576 214.209 307.435 214.862 305.843C216.167 302.704 220.084 291.977 221.203 288.417C221.81 286.59 222.462 285.044 222.695 285.044C222.882 285.044 222.975 285.419 222.835 285.841C222.742 286.309 222.276 288.464 221.856 290.665C220.97 295.209 218.825 302.985 217.426 306.639C216.54 309.028 216.54 309.216 217.286 309.778C217.706 310.059 218.219 310.199 218.406 310.012C218.732 309.684 222.742 296.896 224.654 290.056C225.587 286.871 226.519 286.918 226.053 290.15C225.447 294.507 223.442 303.641 222.322 307.295C221.11 311.277 220.877 312.682 221.576 311.932C221.81 311.698 222.882 308.466 223.954 304.719C227.032 293.757 232.068 278.018 232.441 278.018C232.954 278.018 232.907 279.657 232.348 281.718C232.115 282.655 231.229 286.262 230.436 289.729C229.643 293.195 228.244 298.769 227.405 302.095C226.519 305.421 225.866 308.232 225.96 308.326C226.472 308.841 228.617 304.391 229.737 300.503C231.089 295.631 236.311 278.252 240.974 262.793C247.316 241.854 246.989 242.978 246.29 242.135C245.964 241.714 244.098 240.308 242.14 238.997C227.125 228.879 213.976 213.748 205.722 197.118L202.831 191.31L201.386 191.638C200.593 191.778 199.894 191.966 199.847 192.012C199.8 192.059 200.267 195.245 200.873 199.086C201.526 202.927 202.552 210.609 203.204 216.137C203.857 221.711 204.51 226.958 204.65 227.754C204.836 228.597 204.743 229.3 204.51 229.3C204.277 229.3 203.251 225.225 202.272 220.259C201.293 215.341 199.8 207.799 198.961 203.536L197.376 195.807L197.702 205.878C198.215 221.43 198.262 220.634 196.956 220.634C195.837 220.634 195.79 220.447 194.485 212.015C193.086 202.88 190.101 187.188 189.682 186.766C189.262 186.344 189.402 187.703 190.568 195.9C191.873 204.988 192.107 207.143 191.734 207.518C191.407 207.799 190.195 203.395 189.029 197.681C188.33 194.355 188.096 193.933 187.164 193.793C186.091 193.605 186.045 193.558 186.371 189.67C186.651 185.548 186.418 183.393 185.625 183.393C185.299 183.393 185.252 185.267 185.485 188.968C185.812 194.729 185.392 202.459 184.786 201.803C184.319 201.334 182.921 189.155 182.921 185.876C182.921 183.346 182.687 182.878 181.708 183.253C181.242 183.44 181.055 184.377 181.055 186.672C181.055 188.452 180.869 189.998 180.636 190.186C180.169 190.42 179.19 187.656 179.19 186.11C179.19 184.424 178.724 184.096 176.672 184.236C174.201 184.471 173.688 183.581 174.854 181.098C175.553 179.739 175.973 179.365 177.232 179.271L178.771 179.13L178.491 176.695C178.071 172.947 177.278 169.668 176.579 168.544C175.926 167.513 175.926 167.513 173.874 169.715C170.75 173.088 166.88 178.381 164.222 182.737C159.233 191.076 154.15 203.63 154.756 206.206C155.502 209.345 161.051 219.135 167.626 228.972C169.165 231.268 170.284 233.282 170.097 233.422C169.398 234.125 159.932 221.29 154.663 212.53C153.497 210.516 153.078 210.141 153.078 210.937C153.078 212.53 155.269 216.559 162.31 228.035C171.59 242.978 177.232 252.347 177.558 253.284C178.304 255.252 176.765 253.846 174.387 250.473C167.533 240.589 154.43 220.821 153.311 218.526C152.565 217.121 151.912 216.184 151.819 216.465C151.446 217.589 161.891 240.73 167.719 251.645C171.776 259.28 173.874 262.747 179.75 271.6C182.781 276.238 185.112 280.219 184.926 280.5C184.739 280.781 184.086 280.36 183.247 279.376C181.615 277.502 174.341 266.494 170.564 260.217C169.118 257.781 167.626 255.579 167.3 255.298C166.6 254.689 165.295 252.394 160.538 243.119C155.036 232.439 153.684 229.956 151.119 226.115C147.762 221.102 143.705 216.559 140.534 214.263C138.996 213.139 137.737 211.874 137.69 211.499C137.69 211.125 136.804 210.282 135.685 209.673C134.612 209.064 132.374 207.658 130.696 206.581C129.017 205.503 123.654 202.224 118.805 199.32C102.018 189.249 99.7336 187.328 93.252 177.538C91.0138 174.212 89.1953 171.635 89.1953 171.87C89.1953 172.057 91.3869 176.648 94.0914 181.988C96.7959 187.375 98.8009 191.872 98.5678 192.012C98.1015 192.294 97.3088 191.076 91.247 180.91C89.102 177.35 87.2835 174.68 87.097 174.961C86.9104 175.242 86.9104 177.538 87.097 180.02C87.4234 184.705 86.9104 187.375 85.7913 187.047C85.2318 186.86 85.0919 186.251 84.066 179.177C82.9935 171.87 78.5171 160.487 73.621 152.711C68.585 144.747 61.2642 129.195 61.9637 128.024C62.43 127.321 63.8755 127.649 64.808 128.68C65.3676 129.289 67.2328 132.193 69.0047 135.144C77.5845 149.478 97.2155 179.505 100.386 183.159C104.583 188.031 104.63 187.188 100.526 181.004C94.6043 172.104 89.8015 163.813 87.47 158.425C86.3509 155.849 84.8587 152.664 84.066 151.305C82.3874 148.354 81.1284 144.981 81.7346 144.981C82.2941 144.981 82.8536 146.012 85.2784 151.352C86.3509 153.741 87.843 156.552 88.5891 157.676C89.3818 158.8 91.8531 163.016 94.0914 166.998C98.1015 174.071 106.541 187.843 107.521 188.78C107.754 189.014 107.194 187.89 106.262 186.204C103.417 181.238 102.158 178.147 101.878 175.711C101.552 172.432 102.531 173.041 104.396 177.35C107.101 183.581 111.764 192.059 112.79 192.528C113.303 192.809 114.095 193.371 114.562 193.793C115.867 195.151 124.074 199.789 125.053 199.789C125.613 199.789 127.292 200.772 128.784 201.99C131.628 204.286 141.747 209.907 142.213 209.485C142.353 209.345 141.933 208.501 141.28 207.658C139.882 205.785 137.83 201.756 137.597 200.538C137.503 200.07 137.69 199.554 137.97 199.461C138.249 199.367 139.695 201.569 141.141 204.332C142.586 207.096 144.032 209.719 144.358 210.141C144.824 210.797 146.643 211.968 147.109 211.968C147.202 211.968 145.757 208.736 143.845 204.801C140.161 197.212 139.415 195.245 139.975 194.87C140.208 194.776 140.674 195.01 141.094 195.479C141.793 196.275 147.482 208.876 147.482 209.673C147.482 209.907 147.669 210.094 147.948 210.094C148.182 210.094 147.948 208.97 147.389 207.611C145.057 201.803 140.814 189.577 140.628 187.937C140.255 185.314 141.28 185.782 142.679 188.874C143.332 190.373 145.104 195.151 146.55 199.461C148.042 203.817 149.347 207.424 149.487 207.565C149.58 207.658 149.814 206.159 150 204.192C150.466 199.086 152.005 190.701 153.124 187.141C154.243 183.674 155.689 180.957 158.3 177.491C159.513 175.851 160.072 174.633 160.072 173.556C160.072 172.057 160.025 172.01 159.186 172.807C158.673 173.275 157.414 173.743 156.388 173.884C154.756 174.118 154.477 174.024 154.477 173.275C154.477 172.76 154.989 171.542 155.642 170.511C157.041 168.216 157.134 166.998 155.875 166.998C154.85 166.998 154.71 166.248 155.409 164.468C156.062 162.735 155.549 161.705 154.383 162.36C153.591 162.782 153.497 163.204 153.73 165.405C153.87 166.811 153.777 167.935 153.544 167.935C152.984 167.935 152.798 167.138 151.865 161.002L151.026 155.755H149.254C148.275 155.755 147.482 155.849 147.482 155.99C147.482 156.083 147.948 158.238 148.461 160.721C149.161 163.813 149.301 165.358 148.974 165.686C148.415 166.248 147.809 164.328 146.969 159.222L146.41 155.849L142.4 155.521C138.483 155.193 136.757 154.584 135.452 152.992C133.307 150.275 128.131 137.533 122.815 121.794C117.919 107.413 116.287 102.869 115.448 101.417C115.028 100.667 114.888 100.573 115.075 101.182C115.261 101.698 116.007 103.899 116.753 106.054C119.458 114.018 123.095 129.523 122.256 129.523C122.022 129.523 121.743 129.242 121.649 128.914C119.831 122.731 117.639 116.219 113.862 105.867C111.298 98.8871 109.106 92.9379 109.013 92.5631C108.873 92.1884 108.64 92.0479 108.5 92.1884C108.313 92.3289 108.826 94.8585 109.619 97.7628C111.857 106.054 113.396 115.001 112.557 115.001C112.09 115.001 111.811 114.252 110.179 108.443C108.313 101.979 104.956 91.4857 104.816 91.6731C104.723 91.7668 105.143 94.5775 105.749 97.9034C106.402 101.276 106.914 104.368 106.914 104.789C106.914 106.242 106.215 105.679 105.655 103.853C105.376 102.916 104.303 99.2618 103.277 95.7954L101.412 89.4715L88.4492 84.9745C73.9474 80.009 66.953 77.1516 61.4973 74.013C59.4923 72.8419 57.767 71.9519 57.6737 72.0456C57.5805 72.1393 57.9069 73.3572 58.3732 74.7625C58.8861 76.1678 60.0518 79.7748 60.9378 82.8196C63.9687 92.7974 62.8496 92.001 58.3732 80.9927C56.7411 76.9642 55.3423 73.9193 55.249 74.1536C55.0158 74.8562 57.3007 83.4755 59.6322 90.7362C60.7513 94.3432 61.5906 97.4818 61.4507 97.716C61.2642 97.9502 60.7979 98.1376 60.3316 98.1376C59.399 98.1376 59.3524 97.997 56.0883 88.5346C53.1507 80.1495 46.3894 64.5038 46.3428 66.0496C46.2961 66.2838 46.9956 69.235 47.8815 72.6077C48.8141 76.0742 49.2804 78.8848 49.0473 79.119C48.8141 79.3532 48.4411 78.9785 48.1613 78.1821C46.5759 74.013 44.1978 66.8459 43.0321 62.6768C42.1927 59.7725 41.0736 57.0087 40.2343 55.6971C37.9495 52.3712 35.2449 46.7031 34.2657 43.0493C32.1208 35.3669 30.582 33.4464 22.4218 28.6683C17.4791 25.7171 6.61444 19.9085 6.1015 19.9085C5.91498 19.9085 5.63522 20.3769 5.54196 20.9391ZM-5.22946 41.6908C-7.28116 43.9862 -10.9649 48.0147 -13.4362 50.638C-20.2441 57.8519 -20.9436 59.7725 -22.0161 74.8094C-22.8554 86.4266 -23.1818 87.3167 -28.6375 93.8279C-31.9482 97.8097 -32.5077 99.0276 -32.9274 103.244C-33.3471 107.319 -33.6268 107.881 -38.1033 114.814C-39.9218 117.625 -42.0201 121.559 -42.8128 123.667C-45.6106 130.928 -49.9471 138.423 -51.3927 138.423C-52.7916 138.423 -52.605 137.112 -50.6466 132.755C-47.9887 126.759 -45.7505 120.201 -44.4915 114.673C-43.6056 110.692 -43.4657 108.771 -43.4657 100.48C-43.5123 90.9705 -43.5123 90.8299 -44.8645 87.4572C-46.1702 84.1781 -46.3101 84.0376 -47.5224 84.2718C-48.2219 84.4124 -49.714 85.0681 -50.7865 85.7708C-51.859 86.4735 -55.3095 88.3941 -58.3871 90.0804C-67.4798 94.9991 -68.4124 95.9828 -74.2878 107.085C-78.2513 114.58 -85.3389 126.619 -87.9036 130.226C-88.8362 131.49 -90.9811 134.254 -92.6598 136.315C-98.675 143.576 -99.7475 146.293 -102.032 159.737C-102.825 164.609 -103.664 168.825 -103.851 169.012C-104.037 169.2 -104.504 169.246 -104.923 169.059C-105.623 168.825 -105.716 167.841 -105.763 161.892C-105.856 153.647 -106.509 149.806 -106.602 157.161C-106.649 161.798 -107.162 165.312 -107.768 165.967C-107.954 166.108 -108.281 166.014 -108.56 165.733C-108.933 165.358 -108.887 162.922 -108.467 157.208C-108.001 151.071 -108.001 149.057 -108.421 148.635C-109.213 147.839 -109.4 148.26 -109.913 151.352C-110.286 153.788 -111.778 171.073 -111.778 173.181C-111.778 173.65 -112.058 174.024 -112.431 174.024C-113.83 174.024 -113.876 161.939 -112.477 151.774C-112.151 149.431 -111.964 147.511 -112.011 147.417C-112.058 147.37 -112.664 147.511 -113.27 147.839C-114.389 148.307 -114.436 148.635 -114.716 152.898C-114.995 157.817 -115.322 159.175 -116.161 158.894C-116.767 158.707 -116.814 156.271 -116.254 152.055L-115.881 149.104L-117.373 150.181C-118.213 150.79 -119.378 152.148 -119.938 153.179C-121.85 156.458 -127.072 175.664 -130.896 193.699C-133.227 204.426 -133.414 205.082 -134.533 204.848C-135.559 204.613 -135.466 201.709 -134.113 195.432C-133.227 191.169 -133.227 190.748 -133.927 189.67C-135.466 187.281 -136.072 188.405 -137.424 196.416C-138.916 204.894 -139.289 206.347 -140.082 206.347C-140.735 206.347 -140.781 205.831 -140.548 202.927C-140.362 201.1 -139.709 197.353 -139.056 194.683C-138.403 192.012 -137.984 189.717 -138.077 189.623C-138.17 189.483 -138.683 189.623 -139.196 189.904C-139.942 190.279 -140.129 191.076 -140.362 194.495C-140.642 198.898 -140.968 200.257 -141.761 200.257C-142.04 200.257 -142.134 198.664 -141.947 195.573C-141.807 192.996 -141.807 190.888 -141.947 190.888C-142.973 190.888 -143.906 192.106 -144.185 193.793C-144.605 196.182 -145.304 197.774 -145.351 196.275C-145.351 195.76 -145.165 194.636 -144.931 193.793C-144.605 192.715 -144.652 192.294 -145.025 192.294C-146.47 192.34 -146.937 193.511 -148.429 200.819C-150.061 209.204 -152.672 220.259 -153.092 220.962C-153.278 221.196 -153.558 221.243 -153.744 221.009C-154.304 220.4 -151.739 202.271 -150.154 195.666C-149.874 194.589 -149.921 194.542 -151.273 195.292C-152.532 195.947 -152.719 196.275 -152.998 198.945C-153.185 200.538 -153.465 202.037 -153.604 202.271C-154.117 203.068 -154.584 201.522 -154.351 199.929C-154.211 199.086 -154.211 198.383 -154.351 198.383C-154.49 198.383 -155.376 199.789 -156.309 201.522C-157.288 203.302 -159.806 207.471 -161.951 210.891L-165.868 217.027L-164.796 221.758C-163.63 226.677 -163.77 227.707 -165.495 226.162C-166.474 225.318 -166.474 225.318 -166.148 227.192C-165.355 231.595 -163.91 236.701 -162.138 241.105C-160.273 245.742 -159.2 249.771 -159.62 250.473C-159.76 250.661 -160.459 250.52 -161.252 250.146L-162.604 249.396L-162.324 251.41C-162.184 252.535 -161.532 256.001 -160.925 259.14C-160.319 262.278 -159.806 265.323 -159.806 265.885C-159.806 266.869 -159.853 266.869 -161.019 266.072C-162.184 265.323 -162.231 265.323 -161.951 266.166C-157.661 280.079 -157.521 280.828 -159.014 280.828C-159.387 280.828 -160.226 280.407 -160.925 279.845C-161.578 279.329 -162.138 279.001 -162.138 279.142C-162.138 279.282 -161.578 280.875 -160.925 282.702C-159.713 285.981 -159.62 286.075 -158.221 285.887C-157.428 285.747 -153.232 285.044 -148.848 284.295L-140.921 282.983L-139.429 278.392C-137.751 273.333 -133.787 264.948 -131.082 260.873C-130.103 259.421 -128.518 257.641 -127.492 256.891C-125.673 255.579 -124.135 255.017 -112.151 251.504C-108.514 250.473 -106.182 249.537 -106.182 249.162C-106.182 248.647 -92.753 243.962 -86.9243 242.463C-84.4996 241.854 -78.3445 237.591 -73.3085 233.048C-71.0237 230.986 -67.0602 227.473 -64.5888 225.272C-62.0708 223.07 -59.3663 220.447 -58.527 219.416C-56.7551 217.168 -46.5898 207.892 -42.0668 204.332C-40.2949 202.974 -35.4454 199.601 -31.342 196.884C-26.306 193.558 -22.9487 190.982 -21.1768 189.061C-16.7003 184.19 -11.2913 175.242 -2.19855 157.863C4.37622 145.262 8.94592 138.002 15.7538 129.289C22.7016 120.342 24.5668 115.001 22.7482 109.286C22.2819 107.928 21.8156 106.663 21.6291 106.476C21.4892 106.288 18.4117 111.769 14.8212 118.608C5.30881 136.784 -0.799652 146.574 -1.87213 145.497C-2.52493 144.841 -1.63898 143.014 6.42792 128.352C9.83188 122.168 14.1218 114.111 15.9403 110.411C17.992 106.288 19.5308 103.759 19.9505 103.759C20.6033 103.759 20.5566 103.571 19.9505 101.979C18.7847 99.2618 18.5049 99.3087 17.3858 102.307C15.0544 108.584 5.4487 124.839 4.0498 124.839C3.67676 124.839 3.397 124.745 3.397 124.604C3.397 124.464 6.00824 119.077 9.22568 112.659C15.1476 100.714 16.7331 96.5917 16.2668 94.5774C15.8471 92.9847 15.2875 93.1721 14.6813 95.2332C14.4016 96.1701 12.4897 99.8239 10.3914 103.29C8.33972 106.757 6.61444 109.802 6.52118 110.083C6.38129 110.317 6.14813 110.411 5.96161 110.223C5.40207 109.708 6.47455 106.476 8.85266 101.417C10.0184 98.9807 11.5572 95.3269 12.3032 93.2658L13.6089 89.612L10.1116 84.4592C6.14813 78.6037 3.77005 74.1536 2.7442 70.4529C1.57846 66.3307 1.06552 58.9762 1.06552 46.1878V34.1958L-0.240112 35.8354C-0.939545 36.7254 -3.17776 39.3486 -5.22946 41.6908ZM-25.8864 57.7114C-26.9588 58.0862 -27.8448 58.4141 -27.8448 58.4609C-27.8448 58.5078 -27.0055 60.6625 -26.0262 63.239C-24.1611 68.1107 -24.0211 68.1107 -23.415 63.9885C-23.2285 62.8174 -22.6689 60.7562 -22.2026 59.3041C-21.6897 57.8988 -21.3167 56.6808 -21.3167 56.5872C-21.3167 56.3529 -23.6481 56.915 -25.8864 57.7114ZM-30.3628 63.0984C-30.7358 64.4569 -31.2021 66.6117 -31.3886 67.9233C-31.5751 69.1881 -31.9948 70.9213 -32.3678 71.8114C-32.974 73.2635 -32.8808 73.5446 -31.1555 77.1984C-30.1763 79.3064 -28.8706 82.3981 -28.3111 84.0844C-26.9122 87.9725 -26.679 88.2535 -25.7931 86.5203C-25.0937 85.1618 -25.1869 84.8808 -28.0779 77.1047C-31.1089 69.0476 -31.4819 67.6891 -30.6892 67.6891C-30.1762 67.6891 -28.824 71.015 -26.5392 77.9948L-24.7206 83.3818L-24.4408 80.7117C-24.161 78.3226 -24.3009 77.62 -26.2127 72.8888C-28.5909 66.8928 -29.8032 62.9579 -29.4302 62.5832C-28.9172 62.021 -27.8448 64.1758 -26.1195 69.2818C-24.9071 72.8888 -24.3009 74.1067 -24.2077 73.2635C-24.0678 71.9519 -28.5909 60.6626 -29.2903 60.6626C-29.4768 60.6626 -29.9897 61.7868 -30.3628 63.0984ZM-34.7926 77.2921L-35.7718 78.9316L-33.7201 84.4592C-32.601 87.4572 -31.4353 90.5489 -31.1555 91.2515L-30.6425 92.61L-29.0572 90.8299L-27.4717 89.0499L-28.4976 86.6608C-30.456 82.3512 -33.5802 75.6526 -33.6735 75.6526C-33.7667 75.6526 -34.233 76.402 -34.7926 77.2921ZM-41.2274 86.3329C-41.5072 87.4572 -41.3207 89.3309 -40.4348 95.7485C-40.1083 98.0907 -39.9218 102.494 -40.0617 106.429C-40.155 110.13 -40.2016 113.128 -40.2016 113.128C-40.155 113.128 -39.3623 112.003 -38.4297 110.645L-36.7976 108.115L-37.4505 105.633C-38.1965 102.635 -38.2898 101.417 -37.637 101.417C-37.4038 101.417 -37.0774 102.213 -36.8909 103.15C-36.3314 106.335 -35.8651 106.429 -35.5386 103.571C-35.1656 100.527 -35.6319 98.7466 -39.0825 90.4084C-40.8544 86.0987 -40.9943 84.6934 -39.5022 86.2393C-38.8494 86.9419 -36.0049 94.109 -35.0257 97.5754C-34.9325 97.9502 -34.0931 97.107 -33.1606 95.7017C-31.715 93.5937 -31.5285 93.0316 -31.9482 92.0479C-32.228 91.3921 -33.2538 88.8625 -34.2797 86.4266C-35.2589 83.9908 -36.2381 81.6017 -36.4246 81.1333C-36.6578 80.3838 -37.0308 80.6648 -38.8027 82.7728C-39.9684 84.1313 -41.0409 85.724 -41.2274 86.3329ZM153.497 158.566L153.964 159.737V158.472C154.01 157.817 153.87 156.833 153.684 156.364C153.357 155.568 153.311 155.568 153.171 156.458C153.124 157.02 153.264 157.957 153.497 158.566ZM174.387 160.861C174.62 161.798 177.138 162.501 177.605 161.751C177.745 161.564 177.465 161.377 176.999 161.377C176.486 161.377 175.693 161.049 175.18 160.674C174.714 160.299 174.247 159.971 174.201 159.971C174.201 159.971 174.247 160.393 174.387 160.861ZM181.149 176.226C181.289 179.833 182.314 180.91 182.548 177.678C182.687 175.898 181.895 173.088 181.288 173.088C181.149 173.088 181.102 174.493 181.149 176.226ZM185.252 180.817C185.252 181.192 185.439 181.519 185.718 181.519C185.951 181.519 186.045 181.192 185.905 180.817C185.718 180.442 185.532 180.114 185.439 180.114C185.345 180.114 185.252 180.442 185.252 180.817ZM230.016 197.493C228.664 197.774 227.172 198.477 226.519 199.133C225.913 199.742 225.167 200.257 224.887 200.257C223.954 200.257 224.467 201.288 228.151 206.862C230.249 210 231.835 212.764 231.788 212.998C231.602 213.467 226.985 208.455 224.001 204.567C223.162 203.442 222.322 202.646 222.229 202.787C221.949 203.021 229.177 213.607 232.814 218.292C235.612 221.946 235.798 222.274 235.052 222.274C234.726 222.274 232.861 220.4 230.902 218.151C224.188 210.469 224.654 210.937 226.333 213.842C229.13 218.76 239.529 231.736 244.565 236.608C245.917 237.919 254.217 246.117 262.937 254.83C275.573 267.384 278.931 270.476 279.117 269.773C279.257 269.258 279.63 267.665 279.91 266.166L280.423 263.496L277.625 259.702C273.708 254.502 273.801 251.972 277.765 256.142C279.957 258.39 291.94 273.942 292.36 274.973C292.92 276.519 291.474 275.488 287.884 271.694C285.785 269.492 284.013 267.712 283.92 267.712C283.827 267.712 284.34 270.054 285.039 272.912L286.298 278.064L294.412 286.309C303.738 295.678 306.815 298.488 307.421 297.879C307.654 297.645 307.981 296.661 308.121 295.678L308.447 293.944L306.395 293.991C303.271 294.132 303.038 293.851 303.365 290.244C303.598 287.34 306.302 278.673 309.007 271.975L310.079 269.258L307.841 265.229C305.649 261.294 305.136 259.608 305.976 259.093C306.535 258.718 307.468 259.983 309.333 263.356C310.172 264.995 311.012 266.307 311.198 266.307C311.338 266.307 311.711 265.745 312.038 265.089C312.551 263.964 312.411 263.59 310.918 261.341C309.1 258.577 308.82 256.938 310.126 256.938C310.732 256.938 311.525 255.814 312.784 253.237C314.276 250.099 314.462 249.396 313.949 248.74C312.084 246.492 300.707 240.308 292.733 237.264C291.194 236.701 283.547 233.61 275.713 230.471C263.45 225.506 252.632 221.337 248.715 220.166C247.969 219.931 247.689 220.025 247.782 220.353C247.969 220.915 252.538 222.929 274.547 232.251C280.936 234.968 286.251 237.404 286.345 237.685C286.718 238.809 266.341 231.455 254.777 226.255C251.559 224.85 248.808 223.679 248.575 223.679C248.388 223.679 248.202 224.1 248.202 224.616C248.202 225.178 248.435 225.412 248.855 225.272C249.228 225.131 251.792 225.974 254.59 227.192C266.9 232.485 271.703 234.921 269.745 234.921C269.092 234.921 260.325 231.83 254.59 229.581C251.513 228.41 248.901 227.426 248.761 227.426C248.575 227.426 248.435 228.738 248.435 230.331C248.435 232.954 248.342 233.282 247.502 233.282C245.73 233.282 244.658 230.659 243.073 222.18C242.233 217.73 241.441 213.842 241.347 213.561C241.254 213.28 241.487 212.717 241.907 212.296C242.56 211.64 242.513 211.359 241.674 209.204C240.648 206.581 237.291 199.695 236.218 198.055C235.425 196.837 233.793 196.697 230.016 197.493ZM-167.034 212.015C-166.707 212.952 -166.661 212.998 -166.241 212.202C-165.868 211.64 -165.915 211.265 -166.381 210.984C-167.22 210.469 -167.407 210.75 -167.034 212.015ZM-43.7921 225.553C-43.6988 235.296 -43.7921 237.264 -44.305 237.264C-44.9578 237.264 -45.564 232.251 -46.3101 220.072C-46.5432 216.371 -46.7763 215.387 -47.2426 215.575C-47.6157 215.715 -50.0404 218.479 -52.6517 221.758C-55.2629 224.99 -60.4388 230.705 -64.1692 234.453C-71.2102 241.479 -74.1012 243.541 -78.6709 244.759C-79.79 245.086 -81.7018 245.789 -82.8676 246.398C-85.9451 247.944 -88.8362 248.787 -96.2969 250.38C-104.131 252.019 -123.249 257.641 -125.254 258.859C-126.046 259.327 -127.399 260.732 -128.285 261.95C-130.616 265.136 -134.813 273.708 -136.631 279.048L-138.217 283.592L-136.865 284.06C-135.372 284.576 -135.233 284.435 -134.16 280.313C-132.528 274.176 -127.445 263.496 -126.606 264.339C-126.326 264.62 -127.352 268.461 -129.45 274.926C-131.269 280.5 -132.761 285.325 -132.761 285.7C-132.761 286.262 -131.409 287.199 -131.129 286.824C-131.082 286.731 -130.663 285.325 -130.243 283.639C-129.264 280.032 -125.58 271.928 -124.881 271.928C-123.948 271.928 -123.948 272.865 -124.881 275.066C-126.559 278.954 -128.984 289.401 -128.425 290.15C-128.005 290.619 -127.679 290.103 -126.932 287.808C-126.373 286.215 -125.673 284.763 -125.394 284.669C-124.648 284.435 -124.694 285.044 -125.627 289.401C-126.186 291.977 -126.233 293.195 -125.907 293.523C-125.534 293.898 -125.021 292.867 -124.135 290.103C-122.922 286.356 -119.285 276.565 -118.959 276.191C-118.866 276.097 -118.493 276.144 -118.166 276.284C-117.607 276.519 -117.7 277.409 -118.772 281.625C-119.518 284.388 -120.824 288.979 -121.71 291.837L-123.342 296.989L-122.13 298.301C-120.637 299.847 -120.731 300.034 -119.239 292.961C-118.679 290.244 -118.026 287.714 -117.84 287.34C-116.814 285.7 -116.814 287.995 -117.886 294.366L-119.052 301.346L-117.14 302.517C-112.571 305.374 -105.996 306.452 -97.6491 305.609C-91.0277 305 -85.4322 305.234 -82.2148 306.405C-80.7226 306.92 -79.8833 307.014 -79.6501 306.686C-79.2305 305.983 -76.6659 305.421 -66.081 303.594C-41.6471 299.332 -15.4413 297.458 -6.81485 299.285C-1.2193 300.503 0.692505 301.955 4.84253 308.091C5.96164 309.684 10.1117 314.275 14.0752 318.303C22.3752 326.641 26.8517 329.874 36.9702 334.933C49.2338 341.022 52.5911 343.88 80.1491 371.752C90.9206 382.667 100.899 392.504 102.298 393.581C105.422 395.97 109.199 397.938 111.484 398.266C113.07 398.5 112.65 398.125 107.148 393.956C95.2104 384.915 86.8638 377.326 86.8638 375.546C86.8638 374.984 87.1436 374.516 87.5166 374.516C87.8896 374.516 91.7133 377.701 96.0498 381.636C100.34 385.524 105.982 390.396 108.547 392.41C111.111 394.424 114.002 396.72 114.981 397.516C116.147 398.453 117.126 398.875 117.919 398.781C119.038 398.64 118.758 398.312 114.795 394.986C109.153 390.208 100.853 382.245 100.853 381.589C100.853 380.605 101.878 381.121 104.257 383.322C105.609 384.54 107.707 386.367 109.013 387.398C112.277 389.974 120.81 397.422 121.136 397.984C121.463 398.5 124.167 398.547 124.167 398.031C124.167 397.844 122.769 396.485 120.997 395.033C116.66 391.333 109.712 384.166 109.712 383.276C109.712 382.854 109.945 382.386 110.225 382.245C110.458 382.058 114.235 385.477 118.618 389.834C122.955 394.143 126.639 397.703 126.872 397.703C127.058 397.703 129.67 397.282 132.747 396.813C137.364 396.064 139.835 395.97 147.902 396.204C165.341 396.673 170.377 395.361 192.713 384.587C198.215 381.917 203.344 379.575 204.044 379.434C205.536 379.06 206.562 377.701 207.681 374.563C208.1 373.392 209.406 370.3 210.525 367.723C213.929 360.182 216.027 352.827 216.027 348.611C216.027 346.597 215.654 346.269 206.235 339.851C197.189 333.668 195.091 331.982 193.972 330.061C192.666 327.859 193.878 327.766 196.863 329.92C198.308 330.998 202.225 333.762 205.536 336.104C208.893 338.399 212.624 341.21 213.836 342.334C215.048 343.458 216.074 344.302 216.167 344.255C216.214 344.161 216.214 343.271 216.121 342.194C215.934 340.32 215.748 340.132 208.613 334.839C201.712 329.686 193.552 322.988 192.946 322.051C191.873 320.271 198.588 324.627 208.473 332.075C212.157 334.839 215.281 336.994 215.421 336.853C216.214 336.057 213.883 333.434 206.235 326.501C188.05 309.918 183.853 305.983 183.853 305.328C183.853 304.11 185.065 304.765 188.749 307.951C199.661 317.366 212.297 328.14 212.484 328.14C213.183 328.14 209.966 321.77 207.867 318.959C202.505 311.792 192.386 301.533 187.071 297.879C179.47 292.727 175.46 289.541 159.14 275.91C153.917 271.506 134.566 252.254 117.593 234.547C111.484 228.129 111.111 227.848 106.681 225.787C102.112 223.632 100.06 223.257 100.246 224.616C101.179 232.532 101.785 241.667 101.459 241.995C100.107 243.353 98.7077 238.669 98.4745 232.111C98.3347 228.176 97.7751 227.192 97.4487 230.237C97.3088 231.642 96.5161 236.514 95.7234 241.011C94.9307 245.508 94.138 251.27 93.9981 253.799C93.6717 258.718 93.0189 259.608 92.3194 255.954C91.6666 252.535 92.2728 244.056 93.765 235.39C95.397 226.068 95.7701 222.742 95.2571 222.742C95.0706 222.742 94.7442 223.96 94.5576 225.412C94.1846 228.597 88.9621 250.052 88.2627 251.364C87.9829 251.832 87.5166 252.254 87.2368 252.254C86.4441 252.254 87.0969 246.492 88.4958 241.761C89.1486 239.512 89.6616 237.545 89.5683 237.451C89.1953 237.123 85.9312 247.101 84.8121 252.019C82.9469 260.076 82.6205 263.73 82.3407 278.205C82.2008 285.653 81.9211 291.462 81.7346 291.087C80.4756 288.698 79.543 271.085 80.289 263.777C80.5688 260.966 80.7553 258.577 80.6621 258.484C80.4289 258.296 77.5379 262.325 75.6727 265.417C74.7867 266.962 73.6677 268.602 73.248 269.07C72.0822 270.476 71.2429 272.303 70.1704 275.675C69.0047 279.517 68.3053 283.451 62.8496 315.399C60.4249 329.639 58.3265 341.491 58.1866 341.725C57.6737 342.521 56.1816 342.24 55.8552 341.257C55.7153 340.741 55.6687 340.132 55.8086 339.945C55.9485 339.711 54.876 338.399 53.4305 336.994C48.4877 332.169 39.0219 321.676 37.25 319.1C35.2449 316.148 32.727 308.044 30.3955 296.755C27.5977 283.264 25.546 276.706 23.1213 273.427C22.2353 272.209 22.2353 272.303 23.2612 277.455C25.1263 286.777 26.432 301.908 25.4061 301.908C24.8 301.908 24.66 301.393 23.914 296.052C23.401 292.727 20.6965 278.72 19.1111 271.272C18.5516 268.836 17.1993 266.775 16.0336 266.775C15.8937 266.775 15.8004 271.506 15.8937 277.315C15.987 283.545 15.8471 287.855 15.6139 287.855C15.101 287.855 14.8212 285.7 14.0752 276.378C13.2825 265.932 13.0959 264.855 11.9302 264.105L10.9044 263.402L11.1375 268.04C11.4173 273.146 10.8577 279.376 10.1583 279.563C9.87848 279.61 9.55209 277.315 9.4122 273.802C8.89926 263.637 8.57288 261.763 7.26724 260.92L6.1015 260.123L6.42792 267.197C6.66107 272.068 6.61444 274.27 6.28802 274.27C5.54196 274.27 5.40207 273.38 4.74927 265.698L4.1897 258.812L0.179565 255.907C-8.91318 249.256 -17.3998 241.105 -23.5082 233.094C-25.2335 230.893 -26.8189 228.832 -27.0521 228.597C-27.3319 228.316 -27.3318 230.05 -27.1453 233.094C-26.9588 236.327 -27.0054 238.2 -27.2852 238.388C-27.8914 238.763 -28.1712 237.264 -28.7774 230.705C-29.2437 225.881 -29.4302 225.131 -30.5959 223.679C-32.7875 220.962 -33.3004 221.243 -32.9274 224.944C-32.1813 232.017 -31.9015 239.606 -32.4145 239.606C-32.6942 239.606 -33.0207 239.231 -33.1606 238.763C-33.7201 236.842 -34.7926 230.05 -35.3521 224.99C-35.9117 219.931 -36.0516 219.369 -37.2639 218.198L-38.5696 216.933L-38.3364 218.573C-38.2432 219.463 -38.01 225.834 -37.8235 232.767C-37.5437 243.494 -37.5904 245.321 -38.1499 245.133C-38.5229 244.993 -38.9426 243.962 -39.1291 242.604C-40.0617 235.483 -40.4347 231.83 -40.6679 227.192C-41.0876 219.182 -41.4606 214.591 -41.6938 214.17C-41.787 213.982 -42.3466 213.842 -42.9061 213.842H-43.9319L-43.7921 225.553ZM-188.064 229.487C-191.374 230.612 -195.058 231.97 -196.271 232.532L-198.462 233.469L-197.809 236.186C-197.436 237.685 -197.156 239.044 -197.11 239.231C-197.11 239.84 -198.415 239.653 -198.649 238.997C-198.742 238.716 -198.975 238.528 -199.115 238.669C-199.628 239.137 -197.576 247.054 -195.758 251.645C-192.96 258.765 -192.867 260.545 -195.245 259.28C-196.271 258.718 -196.224 258.905 -194.732 267.009C-193.613 272.912 -193.613 273.661 -194.545 272.865C-194.965 272.537 -195.338 272.35 -195.478 272.49C-195.571 272.584 -194.872 275.301 -193.892 278.533C-192.913 281.718 -192.214 284.482 -192.307 284.669C-192.633 285.278 -194.172 285.091 -194.778 284.342C-195.804 283.124 -195.804 283.873 -194.778 286.637C-193.613 289.682 -193.846 290.384 -195.804 289.963C-197.343 289.588 -197.343 289.682 -195.664 292.118L-194.825 293.336L-190.069 292.258C-185.079 291.134 -184.8 290.993 -183.168 288.23L-182.142 286.449L-183.867 287.199C-186.385 288.276 -186.665 287.621 -185.452 283.779C-184.846 282.046 -184.287 280.313 -184.147 279.985C-184.054 279.657 -184.566 280.032 -185.359 280.828C-187.038 282.515 -188.25 282.655 -188.25 281.156C-188.25 280.594 -187.411 277.174 -186.385 273.567C-185.359 269.96 -184.52 266.822 -184.52 266.588C-184.52 266.354 -184.94 266.541 -185.452 267.009C-185.965 267.478 -186.525 267.712 -186.665 267.571C-186.851 267.431 -186.525 264.901 -186.012 261.997C-185.452 259.093 -184.893 255.205 -184.706 253.425C-184.38 250.192 -184.38 250.146 -185.313 250.942C-187.924 253.284 -187.831 250.192 -185.126 242.885C-183.028 237.264 -182.795 236.514 -181.769 231.502C-181.116 228.41 -181.069 227.426 -181.489 227.426C-181.815 227.426 -184.753 228.363 -188.064 229.487ZM314.882 245.695C314.882 245.93 315.069 246.164 315.348 246.164C315.581 246.164 315.815 245.93 315.815 245.695C315.815 245.414 315.581 245.227 315.348 245.227C315.069 245.227 314.882 245.414 314.882 245.695ZM334.187 280.219C334.326 280.688 334.839 282.561 335.399 284.388C335.959 286.262 336.332 288.557 336.238 289.541C336.005 292.305 334.746 292.164 331.762 289.166C329.803 287.199 329.337 286.918 329.337 287.667C329.337 289.822 331.296 296.146 334.606 304.531C339.176 316.195 340.062 320.505 337.964 321.254C337.591 321.442 335.959 320.411 333.953 318.725C332.135 317.179 330.363 316.008 330.083 316.102C329.803 316.195 329.244 315.821 328.778 315.305L327.985 314.322L327.938 315.399C327.938 315.961 328.684 318.725 329.57 321.489C331.109 326.22 332.135 328.984 336.705 339.758L338.523 344.067L340.155 339.523C342.393 333.34 342.72 332.263 343.559 327.906C344.445 323.222 344.445 323.128 343.419 324.065C342.3 325.096 341.927 325.049 341.927 323.924C341.927 323.128 344.445 310.855 345.051 308.794C345.238 308.044 345.145 307.998 344.305 308.513C343.792 308.888 343.233 308.981 343.093 308.841C342.906 308.7 343.559 305.421 344.445 301.58C345.378 297.786 346.217 294.132 346.357 293.476L346.59 292.305L345.704 293.382C344.632 294.647 344.072 294.038 344.725 292.305C345.145 291.134 344.865 290.665 340.528 285.513C337.917 282.468 335.585 279.845 335.259 279.704C334.187 279.282 333.953 279.423 334.187 280.219ZM287.184 287.386C288.117 290.244 288.769 292.68 288.63 292.867C288.443 293.008 287.884 292.633 287.371 292.024L286.391 290.9L286.718 292.071C288.676 298.91 290.448 306.92 290.122 307.248C289.889 307.482 289.469 307.435 289.003 307.061C288.63 306.733 288.303 306.592 288.303 306.78C288.303 306.967 289.143 310.621 290.168 314.977C291.194 319.287 292.034 322.988 292.034 323.175C292.034 323.784 291.101 323.409 290.168 322.425C289.003 321.161 289.003 321.067 290.215 326.641C291.241 331.326 293.759 338.914 294.272 338.914C294.831 338.868 305.556 320.177 305.556 319.287C305.556 318.537 305.509 318.584 301.593 320.505C298.608 322.004 298.002 322.191 297.629 321.582C297.396 321.208 297.163 320.505 297.163 320.083C297.163 319.615 299.261 315.165 301.826 310.152C304.39 305.187 306.489 300.877 306.489 300.69C306.442 300.456 305.323 299.425 303.971 298.395C302.618 297.364 297.955 293.101 293.619 288.885C289.282 284.716 285.692 281.484 285.599 281.718C285.505 281.952 286.205 284.482 287.184 287.386ZM-163.77 286.449C-163.63 286.684 -163.257 286.918 -163.024 286.918C-162.744 286.918 -162.697 286.684 -162.837 286.449C-162.977 286.168 -163.35 285.981 -163.583 285.981C-163.863 285.981 -163.91 286.168 -163.77 286.449ZM-157.008 288.604C-159.433 289.026 -161.532 289.447 -161.625 289.541C-161.718 289.635 -161.532 290.01 -161.205 290.431C-160.506 291.321 -158.547 291.321 -154.91 290.431C-153.371 290.056 -150.527 289.729 -148.615 289.729C-144.931 289.682 -144.885 289.166 -148.475 288.557C-149.594 288.37 -150.62 288.042 -150.76 287.808C-150.9 287.527 -151.366 287.433 -151.786 287.574C-152.252 287.714 -154.584 288.183 -157.008 288.604ZM-169.132 292.118C-169.132 292.633 -168.946 292.961 -168.666 292.773C-168.433 292.633 -168.339 292.211 -168.526 291.837C-168.852 290.853 -169.132 290.946 -169.132 292.118ZM-201.773 294.694C-201.773 295.069 -201.54 295.256 -201.307 295.116C-201.027 294.928 -200.933 294.6 -201.073 294.366C-201.493 293.71 -201.773 293.851 -201.773 294.694ZM293.199 346.972C293.293 347.581 293.619 349.407 293.899 351.094C294.738 356.153 295.904 361.4 296.184 361.353C296.323 361.353 297.722 359.385 299.214 357.043C301.313 353.811 302.012 352.218 302.199 350.532C302.479 347.534 301.453 346.691 297.769 346.784C296.277 346.878 294.738 346.691 294.365 346.409C293.293 345.707 292.92 345.847 293.199 346.972ZM339.689 348.377C339.362 348.705 339.129 349.548 339.129 350.251C339.129 352.031 337.87 351.984 334.606 350.157C333.254 349.361 332.135 348.845 332.135 348.986C332.135 349.08 332.928 350.391 333.907 351.89C334.839 353.389 336.285 356.059 337.031 357.793C337.824 359.479 338.57 360.931 338.71 360.931C338.85 360.931 339.362 358.355 339.782 355.169C340.202 352.031 340.668 349.08 340.761 348.611C340.948 347.674 340.482 347.581 339.689 348.377ZM293.759 362.805C293.992 363.742 294.458 363.976 294.971 363.414C295.344 363.086 294.458 361.868 293.899 361.868C293.666 361.868 293.619 362.29 293.759 362.805ZM339.502 365.709C339.736 366.693 339.782 366.693 340.109 365.803C340.715 364.257 340.621 363.554 339.875 364.163C339.502 364.491 339.316 365.147 339.502 365.709Z" fill="#120D31" fill-opacity="0.5"/>
<path d="M25.9178 61.9276C26.3841 62.3492 28.1094 66.2373 28.1094 66.7994C28.1094 67.8768 27.2234 66.9868 26.2908 64.9256C25.265 62.8177 25.0785 61.0376 25.9178 61.9276Z" fill="#120D31" fill-opacity="0.5"/>
<path d="M34.5921 84.412C37.25 91.7664 40.0944 98.3246 44.2444 106.71C48.1147 114.439 51.6119 122.918 51.1456 123.386C50.9591 123.527 50.7259 123.433 50.6327 123.105C50.3063 122.262 43.7315 109.239 39.395 100.948C35.1983 92.8439 32.9601 86.8479 32.4938 82.0698C32.3073 80.3366 32.2606 78.9313 32.4005 78.9313C32.5404 78.9313 33.5196 81.414 34.5921 84.412Z" fill="#120D31" fill-opacity="0.5"/>
<path d="M58.1874 115.235C58.5605 115.891 59.2133 116.922 59.5863 117.578C60.4257 118.983 60.4723 119.686 59.6796 119.686C59.0734 119.686 57.861 117.905 57.0683 115.798C56.4155 114.111 57.2549 113.69 58.1874 115.235Z" fill="#120D31" fill-opacity="0.5"/>
<path d="M65.5543 143.436C66.5802 145.403 66.9066 146.855 66.4403 146.855C66.1605 146.855 65.8807 146.574 65.7408 146.246C65.601 145.965 65.1813 144.888 64.7616 143.904C63.8757 141.89 64.5751 141.515 65.5543 143.436Z" fill="#120D31" fill-opacity="0.5"/>
<path d="M71.9423 154.677C74.8333 158.331 82.294 175.991 81.2216 176.647C80.6154 176.975 80.9418 177.537 78.2373 171.494C76.9783 168.73 74.5535 163.859 72.7816 160.72C71.0563 157.628 69.6108 154.677 69.6108 154.209C69.6108 152.991 70.8232 153.225 71.9423 154.677Z" fill="#120D31" fill-opacity="0.5"/>
<path d="M72.3617 165.218C74.0403 168.919 76.1387 175.57 76.1387 177.116C76.1387 179.505 75.0196 177.866 73.9937 173.978C73.3875 171.823 72.2684 168.31 71.5224 166.155C69.8437 161.658 70.4499 161.002 72.3617 165.218Z" fill="#120D31" fill-opacity="0.5"/>
<path d="M98.2883 163.298C98.4748 163.579 98.5214 163.86 98.3816 164C98.2883 164.141 98.0551 163.906 97.9153 163.485C97.5889 162.689 97.8686 162.548 98.2883 163.298Z" fill="#120D31" fill-opacity="0.5"/>
<path d="M134.752 182.55C135.592 183.721 136.897 187.14 136.618 187.468C136.431 187.609 135.778 186.531 135.079 185.079C133.913 182.55 133.773 181.238 134.752 182.55Z" fill="#120D31" fill-opacity="0.5"/>
<path d="M3.07063 182.785C3.58356 183.581 5.72852 194.121 5.72852 195.76C5.72852 197.54 5.12233 197.962 4.37626 196.604C3.63019 195.198 1.9049 183.3 2.37119 182.831C2.65097 182.55 2.93075 182.55 3.07063 182.785Z" fill="#120D31" fill-opacity="0.5"/>
<path d="M183.993 202.927C184.506 203.395 184.366 207.283 183.853 207.283C183.573 207.283 183.386 206.206 183.386 204.941C183.386 202.552 183.433 202.365 183.993 202.927Z" fill="#120D31" fill-opacity="0.5"/>
<path d="M8.15335 208.923C8.06009 209.578 7.87357 210.094 7.78031 210.094C7.68705 210.094 7.5938 209.578 7.5938 208.923C7.5938 208.267 7.78031 207.752 8.01346 207.752C8.19998 207.752 8.29324 208.267 8.15335 208.923Z" fill="#120D31" fill-opacity="0.5"/>
<path d="M81.8748 222.368C82.5276 225.085 82.7608 229.207 82.2478 229.488C81.9681 229.675 81.7349 230.238 81.7349 230.753C81.7349 231.268 81.222 231.877 80.5692 232.205C78.6574 233.048 77.7714 231.83 77.7714 228.223C77.7714 226.631 77.9113 224.757 78.1444 224.054C78.8439 221.478 81.4085 220.354 81.8748 222.368Z" fill="#120D31" fill-opacity="0.5"/>
<path d="M147.948 248.741C148.228 249.116 148.415 249.678 148.321 249.959C148.228 250.24 147.762 249.959 147.342 249.256C146.503 247.991 146.969 247.523 147.948 248.741Z" fill="#120D31" fill-opacity="0.5"/>
<path d="M35.8974 275.535C36.2238 277.783 36.3637 279.704 36.2705 279.845C36.1306 279.938 35.7109 279.282 35.3379 278.346C34.5918 276.566 34.3587 271.46 35.0115 271.46C35.198 271.46 35.6177 273.286 35.8974 275.535Z" fill="#120D31" fill-opacity="0.5"/>
<path d="M229.41 278.486C229.177 281.203 228.524 282.748 227.872 282.139C227.499 281.718 228.664 276.19 229.224 275.816C229.55 275.628 229.597 276.518 229.41 278.486Z" fill="#120D31" fill-opacity="0.5"/>
<path d="M48.3006 283.498C48.9534 284.528 50.0725 296.427 49.6063 296.895C48.9068 297.598 48.7669 296.989 47.9276 290.009C47.4613 286.215 47.3214 283.826 47.6012 283.545C47.881 283.264 48.1607 283.264 48.3006 283.498Z" fill="#120D31" fill-opacity="0.5"/>
<path d="M301.453 259.609C302.572 260.92 307.422 269.352 307.422 269.961C307.422 270.289 307.235 270.523 307.002 270.523C306.443 270.523 301.174 263.356 300.194 261.248C299.122 259.047 300.008 257.922 301.453 259.609Z" fill="#120D31" fill-opacity="0.5"/>
<path d="M296.65 262.043C297.816 263.261 301.826 270.382 301.826 271.178C301.826 271.318 301.64 271.459 301.407 271.459C300.847 271.459 294.365 262.512 294.365 261.762C294.365 260.544 295.391 260.685 296.65 262.043Z" fill="#120D31" fill-opacity="0.5"/>
<path d="M296.418 266.54C297.956 268.929 298.329 270.522 297.07 269.772C296.371 269.351 293.9 265.275 293.9 264.573C293.9 263.355 294.739 264.01 296.418 266.54Z" fill="#120D31" fill-opacity="0.5"/>
<path d="M101.505 247.522C101.692 247.803 101.972 249.865 102.111 252.113C102.345 255.533 102.251 256.142 101.738 255.626C101.039 254.971 100.246 247.991 100.806 247.429C101.039 247.194 101.365 247.241 101.505 247.522Z" fill="#120D31" fill-opacity="0.5"/>
<path d="M86.9574 258.202C87.3304 258.811 86.6776 285.418 86.258 285.793C86.0714 285.981 85.6518 285.887 85.3254 285.559C84.1596 284.388 85.0922 259.514 86.3978 258.202C86.5844 257.968 86.8641 257.968 86.9574 258.202Z" fill="#120D31" fill-opacity="0.5"/>
<path d="M176.485 296.521C179.283 299.191 181.521 301.486 181.521 301.627C181.521 303.032 176.299 298.957 172.895 294.975C170.89 292.586 170.377 291.555 171.123 291.602C171.356 291.649 173.734 293.851 176.485 296.521Z" fill="#120D31" fill-opacity="0.5"/>
<path d="M188.144 316.804C189.869 318.256 191.081 319.521 190.848 319.614C190.475 319.755 183.854 314.649 183.854 314.274C183.854 313.525 185.486 314.508 188.144 316.804Z" fill="#120D31" fill-opacity="0.5"/>
<path d="M189.075 324.3C190.894 325.612 191.267 326.268 190.194 326.268C189.355 326.268 186.464 324.253 186.511 323.691C186.604 322.895 187.303 323.035 189.075 324.3Z" fill="#120D31" fill-opacity="0.5"/>
<path d="M68.351 346.315C69.6099 347.065 70.0296 347.814 69.1903 347.814C68.5841 347.814 66.5324 346.081 66.8122 345.8C66.9521 345.66 67.6515 345.894 68.351 346.315Z" fill="#120D31" fill-opacity="0.5"/>
<path d="M77.4442 355.684C83.8791 362.196 97.355 376.483 97.5415 376.998C97.6348 377.232 97.4949 377.373 97.2151 377.279C96.7955 377.092 87.2831 368.192 76.9313 358.214C72.5481 353.998 71.1026 351.562 73.0144 351.562C73.2476 351.562 75.2526 353.389 77.4442 355.684Z" fill="#120D31" fill-opacity="0.5"/>
<path d="M84.7187 355.123C85.4182 355.778 85.9311 356.434 85.7446 356.575C85.5114 356.809 82.2007 354.56 82.2007 354.092C82.2007 353.53 83.5064 354.045 84.7187 355.123Z" fill="#120D31" fill-opacity="0.5"/>
<path d="M98.5214 368.566C99.9203 369.924 101.692 371.47 102.485 372.032C104.303 373.344 103.604 374 101.552 372.922C98.4748 371.236 93.9517 366.036 95.5838 366.083C95.8169 366.083 97.1225 367.207 98.5214 368.566Z" fill="#120D31" fill-opacity="0.5"/>
<path d="M84.3466 370.533C85.2791 371.705 85.932 372.782 85.7454 372.969C85.3724 373.391 81.7353 369.831 81.7353 369.034C81.7353 367.91 82.5746 368.426 84.3466 370.533Z" fill="#120D31" fill-opacity="0.5"/>
<path d="M271.051 277.784C271.051 280.126 270.864 281.766 270.584 281.766C270.305 281.766 270.118 280.126 270.118 277.784C270.118 275.442 270.305 273.802 270.584 273.802C270.864 273.802 271.051 275.442 271.051 277.784Z" fill="#120D31" fill-opacity="0.5"/>
<path d="M253.751 276.004C253.751 277.971 253.144 279.845 252.771 279.142C252.398 278.44 252.911 274.27 253.378 274.27C253.611 274.27 253.797 275.067 253.751 276.004Z" fill="#120D31" fill-opacity="0.5"/>
<path d="M259.627 277.643C259.253 280.828 259.114 281.297 258.414 281.297C257.948 281.297 257.855 278.393 258.274 276.191C258.461 275.348 258.88 274.739 259.253 274.739C259.813 274.739 259.906 275.254 259.627 277.643Z" fill="#120D31" fill-opacity="0.5"/>
<path d="M258.974 287.715C259.207 289.261 258.461 293.945 257.948 293.945C257.481 293.945 257.388 291.744 257.808 289.12C258.088 287.621 258.834 286.731 258.974 287.715Z" fill="#120D31" fill-opacity="0.5"/>
<path d="M242.42 293.102C242.28 293.945 241.814 297.318 241.441 300.597C241.021 303.876 240.555 307.061 240.322 307.623C239.949 308.607 239.855 308.654 239.575 307.858C238.643 305.609 240.788 291.603 242 291.603C242.56 291.603 242.653 291.977 242.42 293.102Z" fill="#120D31" fill-opacity="0.5"/>
</svg>
